<svg xmlns="http://www.w3.org/2000/svg" xmlns:xlink="http://www.w3.org/1999/xlink" width="500" zoomAndPan="magnify" viewBox="0 0 375 374.999991" height="500" preserveAspectRatio="xMidYMid meet" version="1.0"><defs><g/><clipPath id="46ee49ac75"><path d="M 186 143.066406 L 190 143.066406 L 190 204 L 186 204 Z M 186 143.066406 " clip-rule="nonzero"/></clipPath><clipPath id="095f151630"><path d="M 193.894531 208.125 L 253.746094 208.125 L 253.746094 211.726562 L 193.894531 211.726562 Z M 193.894531 208.125 " clip-rule="nonzero"/></clipPath><clipPath id="4f6024ef60"><path d="M 185.207031 215.964844 L 188.808594 215.964844 L 188.808594 275.816406 L 185.207031 275.816406 Z M 185.207031 215.964844 " clip-rule="nonzero"/></clipPath><clipPath id="51cc01da95"><path d="M 120.996094 207 L 182 207 L 182 211 L 120.996094 211 Z M 120.996094 207 " clip-rule="nonzero"/></clipPath></defs><path fill="#38b6ff" d="M 191.753906 209.613281 C 191.753906 211.746094 190.027344 213.476562 187.890625 213.476562 C 185.757812 213.476562 184.027344 211.746094 184.027344 209.613281 C 184.027344 207.476562 185.757812 205.746094 187.890625 205.746094 C 190.027344 205.746094 191.753906 207.476562 191.753906 209.613281 " fill-opacity="1" fill-rule="nonzero"/><g clip-path="url(#46ee49ac75)"><path fill="#38b6ff" d="M 189.585938 203.15625 L 186.195312 203.15625 L 186.195312 143.066406 L 189.585938 143.066406 L 189.585938 203.15625 " fill-opacity="1" fill-rule="nonzero"/></g><g clip-path="url(#095f151630)"><path fill="#38b6ff" d="M 253.996094 211.65625 L 193.910156 211.65625 L 193.910156 208.265625 L 253.996094 208.265625 L 253.996094 211.65625 " fill-opacity="1" fill-rule="nonzero"/></g><g clip-path="url(#4f6024ef60)"><path fill="#38b6ff" d="M 188.796875 276.066406 L 185.40625 276.066406 L 185.40625 215.976562 L 188.796875 215.976562 L 188.796875 276.066406 " fill-opacity="1" fill-rule="nonzero"/></g><path fill="#38b6ff" d="M 146.945312 212.988281 L 143.542969 212.988281 C 145.160156 234.414062 162.023438 251.65625 183.289062 253.851562 L 183.289062 250.4375 C 163.898438 248.265625 148.542969 232.542969 146.945312 212.988281 Z M 190.917969 250.585938 L 190.917969 253.984375 C 212.65625 252.515625 230.15625 235.363281 232.171875 213.777344 L 228.765625 213.777344 C 226.773438 233.488281 210.785156 249.132812 190.917969 250.585938 Z M 228.828125 206.148438 L 232.234375 206.148438 C 230.558594 184.496094 213.308594 167.144531 191.707031 165.300781 L 191.707031 168.707031 C 211.4375 170.53125 227.167969 186.367188 228.828125 206.148438 Z M 143.621094 205.359375 L 147.027344 205.359375 C 149.03125 185.949219 164.609375 170.507812 184.078125 168.707031 L 184.078125 165.300781 C 162.738281 167.125 145.648438 184.078125 143.621094 205.359375 " fill-opacity="1" fill-rule="nonzero"/><g clip-path="url(#51cc01da95)"><path fill="#38b6ff" d="M 181.085938 210.867188 L 120.996094 210.867188 L 120.996094 207.476562 L 181.085938 207.476562 L 181.085938 210.867188 " fill-opacity="1" fill-rule="nonzero"/></g><g fill="#004aad" fill-opacity="1"><g transform="translate(78.743422, 225.694658)"><g><path d="M 2.28125 -3 C 3.09375 -3.03125 3.710938 -3.128906 4.140625 -3.296875 C 4.566406 -3.460938 4.898438 -3.816406 5.140625 -4.359375 C 5.390625 -4.910156 5.515625 -5.78125 5.515625 -6.96875 L 5.515625 -24.40625 C 5.515625 -26.113281 5.570312 -27.484375 5.6875 -28.515625 L 2.28125 -28.375 L 2.28125 -31.875 L 15.34375 -31.875 L 15.34375 -28.875 C 14.53125 -28.84375 13.910156 -28.742188 13.484375 -28.578125 C 13.054688 -28.410156 12.71875 -28.050781 12.46875 -27.5 C 12.226562 -26.957031 12.109375 -26.097656 12.109375 -24.921875 L 12.109375 -7.46875 C 12.109375 -5.832031 12.050781 -4.5 11.9375 -3.46875 L 18.03125 -3.46875 C 19.851562 -3.488281 21.265625 -4.128906 22.265625 -5.390625 C 23.273438 -6.648438 23.78125 -8.5 23.78125 -10.9375 L 26.828125 -10.9375 L 26.546875 0 L 2.28125 0 Z M 2.28125 -3 "/></g></g></g><g fill="#004aad" fill-opacity="1"><g transform="translate(106.24902, 225.694658)"><g><path d="M 13.03125 0.734375 C 10.8125 0.734375 8.820312 0.265625 7.0625 -0.671875 C 5.300781 -1.617188 3.914062 -2.972656 2.90625 -4.734375 C 1.90625 -6.492188 1.40625 -8.546875 1.40625 -10.890625 C 1.40625 -13.347656 1.921875 -15.53125 2.953125 -17.4375 C 3.992188 -19.351562 5.382812 -20.84375 7.125 -21.90625 C 8.875 -22.96875 10.796875 -23.5 12.890625 -23.5 C 15.078125 -23.5 17.035156 -23.023438 18.765625 -22.078125 C 20.492188 -21.140625 21.859375 -19.78125 22.859375 -18 C 23.867188 -16.226562 24.375 -14.160156 24.375 -11.796875 C 24.375 -9.273438 23.894531 -7.070312 22.9375 -5.1875 C 21.976562 -3.3125 20.640625 -1.851562 18.921875 -0.8125 C 17.203125 0.21875 15.238281 0.734375 13.03125 0.734375 Z M 13.125 -2.5 C 14.789062 -2.5 15.957031 -3.273438 16.625 -4.828125 C 17.289062 -6.378906 17.625 -8.320312 17.625 -10.65625 C 17.625 -13.269531 17.242188 -15.53125 16.484375 -17.4375 C 15.722656 -19.351562 14.523438 -20.3125 12.890625 -20.3125 C 11.222656 -20.3125 10.007812 -19.519531 9.25 -17.9375 C 8.488281 -16.363281 8.109375 -14.421875 8.109375 -12.109375 C 8.109375 -9.472656 8.515625 -7.210938 9.328125 -5.328125 C 10.148438 -3.441406 11.414062 -2.5 13.125 -2.5 Z M 13.125 -2.5 "/></g></g></g><g fill="#004aad" fill-opacity="1"><g transform="translate(132.024134, 225.694658)"><g><path d="M 11.65625 12.34375 C 7.988281 12.34375 5.34375 11.78125 3.71875 10.65625 C 2.09375 9.53125 1.28125 8.101562 1.28125 6.375 C 1.28125 5.3125 1.617188 4.316406 2.296875 3.390625 C 2.984375 2.460938 4.085938 1.710938 5.609375 1.140625 C 4.421875 0.804688 3.5625 0.289062 3.03125 -0.40625 C 2.5 -1.101562 2.234375 -1.925781 2.234375 -2.875 C 2.234375 -3.78125 2.585938 -4.703125 3.296875 -5.640625 C 4.015625 -6.585938 5.132812 -7.289062 6.65625 -7.75 L 6.65625 -7.78125 C 5.28125 -8.332031 4.191406 -9.191406 3.390625 -10.359375 C 2.585938 -11.523438 2.1875 -12.914062 2.1875 -14.53125 C 2.1875 -16.226562 2.664062 -17.757812 3.625 -19.125 C 4.582031 -20.488281 5.84375 -21.554688 7.40625 -22.328125 C 8.96875 -23.109375 10.613281 -23.5 12.34375 -23.5 C 13.25 -23.5 14.203125 -23.382812 15.203125 -23.15625 C 16.210938 -22.925781 17.066406 -22.570312 17.765625 -22.09375 C 18.335938 -23.664062 19.109375 -24.972656 20.078125 -26.015625 C 21.054688 -27.066406 22.210938 -27.59375 23.546875 -27.59375 C 24.546875 -27.59375 25.316406 -27.332031 25.859375 -26.8125 C 26.410156 -26.300781 26.6875 -25.59375 26.6875 -24.6875 C 26.6875 -23.988281 26.46875 -23.347656 26.03125 -22.765625 C 25.59375 -22.191406 24.898438 -21.90625 23.953125 -21.90625 C 23.472656 -21.90625 22.992188 -22.078125 22.515625 -22.421875 C 22.046875 -22.773438 21.769531 -23.195312 21.6875 -23.6875 C 21.289062 -23.5625 20.894531 -23.171875 20.5 -22.515625 C 20.101562 -21.867188 19.875 -21.269531 19.8125 -20.71875 C 20.664062 -19.957031 21.328125 -19.078125 21.796875 -18.078125 C 22.265625 -17.078125 22.5 -16 22.5 -14.84375 C 22.5 -13.144531 22.007812 -11.601562 21.03125 -10.21875 C 20.0625 -8.84375 18.785156 -7.765625 17.203125 -6.984375 C 15.628906 -6.210938 13.945312 -5.828125 12.15625 -5.828125 L 10.890625 -5.875 C 10.222656 -5.9375 9.734375 -5.96875 9.421875 -5.96875 C 8.753906 -5.96875 8.191406 -5.84375 7.734375 -5.59375 C 7.285156 -5.351562 7.0625 -5.019531 7.0625 -4.59375 C 7.0625 -4.050781 7.476562 -3.664062 8.3125 -3.4375 C 9.144531 -3.207031 10.671875 -3.035156 12.890625 -2.921875 C 16.710938 -2.703125 19.609375 -2.0625 21.578125 -1 C 23.554688 0.0625 24.546875 1.835938 24.546875 4.328125 C 24.546875 5.960938 23.914062 7.390625 22.65625 8.609375 C 21.394531 9.828125 19.769531 10.753906 17.78125 11.390625 C 15.789062 12.023438 13.75 12.34375 11.65625 12.34375 Z M 12.34375 -8.875 C 13.5 -8.875 14.414062 -9.390625 15.09375 -10.421875 C 15.78125 -11.460938 16.125 -12.664062 16.125 -14.03125 C 16.125 -15.757812 15.789062 -17.257812 15.125 -18.53125 C 14.457031 -19.8125 13.515625 -20.453125 12.296875 -20.453125 C 11.140625 -20.453125 10.210938 -19.921875 9.515625 -18.859375 C 8.816406 -17.796875 8.46875 -16.535156 8.46875 -15.078125 C 8.46875 -13.378906 8.816406 -11.921875 9.515625 -10.703125 C 10.210938 -9.484375 11.15625 -8.875 12.34375 -8.875 Z M 12.984375 9.203125 C 14.347656 9.203125 15.519531 9.019531 16.5 8.65625 C 17.488281 8.289062 18.242188 7.828125 18.765625 7.265625 C 19.285156 6.703125 19.546875 6.132812 19.546875 5.5625 C 19.546875 4.613281 19.003906 3.894531 17.921875 3.40625 C 16.847656 2.925781 15.203125 2.640625 12.984375 2.546875 C 12.734375 2.515625 12.335938 2.5 11.796875 2.5 C 11.492188 2.46875 10.960938 2.429688 10.203125 2.390625 C 9.441406 2.347656 8.816406 2.28125 8.328125 2.1875 C 7.878906 2.550781 7.523438 3.019531 7.265625 3.59375 C 7.003906 4.175781 6.875 4.753906 6.875 5.328125 C 6.875 6.515625 7.425781 7.457031 8.53125 8.15625 C 9.644531 8.851562 11.128906 9.203125 12.984375 9.203125 Z M 12.984375 9.203125 "/></g></g></g><g fill="#004aad" fill-opacity="1"><g transform="translate(157.389401, 225.694658)"><g><path d="M 4.09375 -24.1875 C 3.25 -26.1875 2.828125 -27.628906 2.828125 -28.515625 L 0.359375 -28.375 L 0.359375 -31.875 L 13.796875 -31.875 L 13.796875 -28.875 C 11.796875 -28.9375 10.796875 -28.300781 10.796875 -26.96875 C 10.796875 -26.476562 10.914062 -25.945312 11.15625 -25.375 L 15.34375 -15.078125 C 15.707031 -14.222656 16.164062 -13.097656 16.71875 -11.703125 C 16.894531 -11.222656 17.304688 -10.175781 17.953125 -8.5625 L 17.984375 -8.5625 L 20.171875 -14.84375 L 23.640625 -24.375 C 24.304688 -26.46875 24.925781 -27.847656 25.5 -28.515625 L 25.5 -28.5625 L 23.140625 -28.421875 L 22 -28.375 L 22 -31.875 L 32.25 -31.875 L 32.25 -28.875 C 31.1875 -28.8125 30.273438 -28.40625 29.515625 -27.65625 C 28.753906 -26.914062 28.054688 -25.695312 27.421875 -24 L 18.3125 0.265625 L 14.578125 0.265625 Z M 4.09375 -24.1875 "/></g></g></g><g fill="#004aad" fill-opacity="1"><g transform="translate(189.631068, 225.694658)"><g><path d="M 8.296875 -27.28125 C 7.253906 -27.28125 6.398438 -27.632812 5.734375 -28.34375 C 5.066406 -29.0625 4.734375 -29.9375 4.734375 -30.96875 C 4.734375 -32 5.082031 -32.882812 5.78125 -33.625 C 6.476562 -34.375 7.300781 -34.75 8.25 -34.75 C 9.21875 -34.75 10.023438 -34.382812 10.671875 -33.65625 C 11.328125 -32.925781 11.65625 -32.03125 11.65625 -30.96875 C 11.65625 -29.90625 11.34375 -29.023438 10.71875 -28.328125 C 10.101562 -27.628906 9.296875 -27.28125 8.296875 -27.28125 Z M 1.875 -2.953125 C 3.019531 -2.953125 3.75 -3.269531 4.0625 -3.90625 C 4.382812 -4.550781 4.546875 -5.585938 4.546875 -7.015625 L 4.546875 -14.578125 C 4.546875 -16.003906 4.609375 -17.320312 4.734375 -18.53125 L 1.546875 -18.40625 L 1.546875 -21.859375 C 3.460938 -21.859375 5.007812 -21.992188 6.1875 -22.265625 C 7.375 -22.546875 8.164062 -22.867188 8.5625 -23.234375 L 11.015625 -23.234375 L 11.015625 -7.328125 C 11.015625 -5.867188 10.957031 -4.535156 10.84375 -3.328125 C 11.8125 -3.421875 12.796875 -3.46875 13.796875 -3.46875 L 13.796875 0 L 1.875 0 Z M 1.875 -2.953125 "/></g></g></g><g fill="#004aad" fill-opacity="1"><g transform="translate(204.522348, 225.694658)"><g><path d="M 12.34375 0.734375 C 11.039062 0.734375 9.765625 0.566406 8.515625 0.234375 C 7.273438 -0.0976562 6.304688 -0.523438 5.609375 -1.046875 L 5.5625 -1.046875 L 5.6875 0.3125 L 2.234375 0.3125 L 2.046875 -7.515625 L 5.015625 -7.515625 C 5.160156 -6.117188 5.894531 -4.941406 7.21875 -3.984375 C 8.539062 -3.023438 10.15625 -2.546875 12.0625 -2.546875 C 12.914062 -2.546875 13.65625 -2.742188 14.28125 -3.140625 C 14.90625 -3.535156 15.21875 -4.097656 15.21875 -4.828125 C 15.21875 -5.367188 15.019531 -5.820312 14.625 -6.1875 C 14.226562 -6.550781 13.753906 -6.851562 13.203125 -7.09375 C 12.660156 -7.34375 11.566406 -7.785156 9.921875 -8.421875 C 7.984375 -9.179688 6.523438 -9.800781 5.546875 -10.28125 C 4.578125 -10.769531 3.707031 -11.492188 2.9375 -12.453125 C 2.164062 -13.410156 1.78125 -14.648438 1.78125 -16.171875 C 1.78125 -17.410156 2.085938 -18.582031 2.703125 -19.6875 C 3.328125 -20.800781 4.285156 -21.710938 5.578125 -22.421875 C 6.867188 -23.140625 8.457031 -23.5 10.34375 -23.5 C 11.21875 -23.5 12.171875 -23.363281 13.203125 -23.09375 C 14.234375 -22.820312 15.101562 -22.441406 15.8125 -21.953125 L 15.84375 -21.953125 L 15.8125 -23.28125 L 19.265625 -23.28125 L 19.265625 -15.21875 L 16.3125 -15.21875 C 16.03125 -16.789062 15.328125 -18.03125 14.203125 -18.9375 C 13.085938 -19.851562 11.707031 -20.3125 10.0625 -20.3125 C 9.21875 -20.3125 8.503906 -20.113281 7.921875 -19.71875 C 7.347656 -19.320312 7.0625 -18.71875 7.0625 -17.90625 C 7.0625 -17.050781 7.394531 -16.414062 8.0625 -16 C 8.726562 -15.59375 9.851562 -15.132812 11.4375 -14.625 C 11.613281 -14.59375 12.003906 -14.46875 12.609375 -14.25 C 15.191406 -13.34375 17.171875 -12.28125 18.546875 -11.0625 C 19.929688 -9.851562 20.625 -8.257812 20.625 -6.28125 C 20.625 -4.769531 20.238281 -3.488281 19.46875 -2.4375 C 18.695312 -1.382812 17.679688 -0.59375 16.421875 -0.0625 C 15.160156 0.46875 13.800781 0.734375 12.34375 0.734375 Z M 12.34375 0.734375 "/></g></g></g><g fill="#004aad" fill-opacity="1"><g transform="translate(226.608803, 225.694658)"><g><path d="M 8.296875 -27.28125 C 7.253906 -27.28125 6.398438 -27.632812 5.734375 -28.34375 C 5.066406 -29.0625 4.734375 -29.9375 4.734375 -30.96875 C 4.734375 -32 5.082031 -32.882812 5.78125 -33.625 C 6.476562 -34.375 7.300781 -34.75 8.25 -34.75 C 9.21875 -34.75 10.023438 -34.382812 10.671875 -33.65625 C 11.328125 -32.925781 11.65625 -32.03125 11.65625 -30.96875 C 11.65625 -29.90625 11.34375 -29.023438 10.71875 -28.328125 C 10.101562 -27.628906 9.296875 -27.28125 8.296875 -27.28125 Z M 1.875 -2.953125 C 3.019531 -2.953125 3.75 -3.269531 4.0625 -3.90625 C 4.382812 -4.550781 4.546875 -5.585938 4.546875 -7.015625 L 4.546875 -14.578125 C 4.546875 -16.003906 4.609375 -17.320312 4.734375 -18.53125 L 1.546875 -18.40625 L 1.546875 -21.859375 C 3.460938 -21.859375 5.007812 -21.992188 6.1875 -22.265625 C 7.375 -22.546875 8.164062 -22.867188 8.5625 -23.234375 L 11.015625 -23.234375 L 11.015625 -7.328125 C 11.015625 -5.867188 10.957031 -4.535156 10.84375 -3.328125 C 11.8125 -3.421875 12.796875 -3.46875 13.796875 -3.46875 L 13.796875 0 L 1.875 0 Z M 1.875 -2.953125 "/></g></g></g><g fill="#004aad" fill-opacity="1"><g transform="translate(241.500083, 225.694658)"><g><path d="M 13.03125 0.734375 C 10.8125 0.734375 8.820312 0.265625 7.0625 -0.671875 C 5.300781 -1.617188 3.914062 -2.972656 2.90625 -4.734375 C 1.90625 -6.492188 1.40625 -8.546875 1.40625 -10.890625 C 1.40625 -13.347656 1.921875 -15.53125 2.953125 -17.4375 C 3.992188 -19.351562 5.382812 -20.84375 7.125 -21.90625 C 8.875 -22.96875 10.796875 -23.5 12.890625 -23.5 C 15.078125 -23.5 17.035156 -23.023438 18.765625 -22.078125 C 20.492188 -21.140625 21.859375 -19.78125 22.859375 -18 C 23.867188 -16.226562 24.375 -14.160156 24.375 -11.796875 C 24.375 -9.273438 23.894531 -7.070312 22.9375 -5.1875 C 21.976562 -3.3125 20.640625 -1.851562 18.921875 -0.8125 C 17.203125 0.21875 15.238281 0.734375 13.03125 0.734375 Z M 13.125 -2.5 C 14.789062 -2.5 15.957031 -3.273438 16.625 -4.828125 C 17.289062 -6.378906 17.625 -8.320312 17.625 -10.65625 C 17.625 -13.269531 17.242188 -15.53125 16.484375 -17.4375 C 15.722656 -19.351562 14.523438 -20.3125 12.890625 -20.3125 C 11.222656 -20.3125 10.007812 -19.519531 9.25 -17.9375 C 8.488281 -16.363281 8.109375 -14.421875 8.109375 -12.109375 C 8.109375 -9.472656 8.515625 -7.210938 9.328125 -5.328125 C 10.148438 -3.441406 11.414062 -2.5 13.125 -2.5 Z M 13.125 -2.5 "/></g></g></g><g fill="#004aad" fill-opacity="1"><g transform="translate(267.275197, 225.694658)"><g><path d="M 1.875 -2.953125 C 3.019531 -2.953125 3.75 -3.269531 4.0625 -3.90625 C 4.382812 -4.550781 4.546875 -5.585938 4.546875 -7.015625 L 4.546875 -14.671875 C 4.546875 -16.035156 4.609375 -17.320312 4.734375 -18.53125 L 1.546875 -18.40625 L 1.546875 -21.859375 C 3.460938 -21.859375 5.007812 -21.992188 6.1875 -22.265625 C 7.375 -22.546875 8.164062 -22.867188 8.5625 -23.234375 L 10.796875 -23.234375 C 10.796875 -23.171875 10.859375 -22.410156 10.984375 -20.953125 L 11.0625 -20.953125 C 11.945312 -21.648438 13.035156 -22.25 14.328125 -22.75 C 15.617188 -23.25 16.71875 -23.5 17.625 -23.5 C 20.382812 -23.5 22.359375 -22.707031 23.546875 -21.125 C 24.734375 -19.550781 25.328125 -16.988281 25.328125 -13.4375 L 25.328125 -7.328125 C 25.328125 -5.867188 25.265625 -4.535156 25.140625 -3.328125 C 26.140625 -3.421875 27.128906 -3.46875 28.109375 -3.46875 L 28.109375 0 L 16.171875 0 L 16.171875 -2.953125 C 17.328125 -2.953125 18.070312 -3.269531 18.40625 -3.90625 C 18.738281 -4.550781 18.90625 -5.585938 18.90625 -7.015625 L 18.859375 -13.484375 C 18.859375 -15.484375 18.578125 -16.953125 18.015625 -17.890625 C 17.453125 -18.835938 16.503906 -19.3125 15.171875 -19.3125 C 14.441406 -19.3125 13.695312 -19.148438 12.9375 -18.828125 C 12.175781 -18.515625 11.535156 -18.113281 11.015625 -17.625 L 11.015625 -7.328125 C 11.015625 -5.867188 10.957031 -4.535156 10.84375 -3.328125 C 11.8125 -3.421875 12.796875 -3.46875 13.796875 -3.46875 L 13.796875 0 L 1.875 0 Z M 1.875 -2.953125 "/></g></g></g></svg>